HIERARCHY
ROOT Hips
{
	OFFSET 0.000000 0.000000 0.000000
	CHANNELS 6 Xposition Yposition Zposition Zrotation Yrotation Xrotation 
	JOINT LHipJoint
	{
		OFFSET 0.000000 0.000000 0.000000
		CHANNELS 3 Zrotation Yrotation Xrotation
		JOINT LeftUpLeg
		{
			OFFSET 8.178360 -10.767780 5.035740
			CHANNELS 3 Zrotation Yrotation Xrotation
			JOINT LeftLeg
			{
				OFFSET 14.688660 -40.356780 0.000000
				CHANNELS 3 Zrotation Yrotation Xrotation
				JOINT LeftFoot
				{
					OFFSET 15.373200 -42.237540 0.000000
					CHANNELS 3 Zrotation Yrotation Xrotation
					JOINT LeftToeBase
					{
						OFFSET 0.945840 -2.598660 13.935300
						CHANNELS 3 Zrotation Yrotation Xrotation
						End Site
						{
							OFFSET 0.000000 0.000000 0.000000
						}
					}
				}
			}
		}
	}
	JOINT RHipJoint
	{
		OFFSET 0.000000 0.000000 0.000000
		CHANNELS 3 Zrotation Yrotation Xrotation
		JOINT RightUpLeg
		{
			OFFSET -7.833120 -10.767780 5.035740
			CHANNELS 3 Zrotation Yrotation Xrotation
			JOINT RightLeg
			{
				OFFSET -15.255180 -41.913300 0.000000
				CHANNELS 3 Zrotation Yrotation Xrotation
				JOINT RightFoot
				{
					OFFSET -15.409560 -42.337380 0.000000
					CHANNELS 3 Zrotation Yrotation Xrotation
					JOINT RightToeBase
					{
						OFFSET -0.988380 -2.715540 14.178900
						CHANNELS 3 Zrotation Yrotation Xrotation
						End Site
						{
							OFFSET 0.000000 0.000000 0.000000
						}
					}
				}
			}
		}
	}
	JOINT LowerBack
	{
		OFFSET 0.000000 0.000000 0.000000
		CHANNELS 3 Zrotation Yrotation Xrotation
		JOINT Spine
		{
			OFFSET 0.169620 12.213540 -1.160280
			CHANNELS 3 Zrotation Yrotation Xrotation
			JOINT Spine1
			{
				OFFSET 0.340320 12.293100 -0.256500
				CHANNELS 3 Zrotation Yrotation Xrotation
				JOINT Neck
				{
					OFFSET 0.000000 0.000000 0.000000
					CHANNELS 3 Zrotation Yrotation Xrotation
					JOINT Neck1
					{
						OFFSET -0.325020 10.477440 1.032120
						CHANNELS 3 Zrotation Yrotation Xrotation
						JOINT Head
						{
							OFFSET 0.624420 10.568160 -0.743820
							CHANNELS 3 Zrotation Yrotation Xrotation
							End Site
							{
								OFFSET 0.000000 0.000000 0.000000
							}
						}
					}
				}
				JOINT LeftShoulder
				{
					OFFSET 0.000000 0.000000 0.000000
					CHANNELS 3 Zrotation Yrotation Xrotation
					JOINT LeftArm
					{
						OFFSET 20.174460 7.205340 -1.867260
						CHANNELS 3 Zrotation Yrotation Xrotation
						JOINT LeftForeArm
						{
							OFFSET 29.898000 -0.000000 -0.000000
							CHANNELS 3 Zrotation Yrotation Xrotation
							JOINT LeftHand
							{
								OFFSET 20.901360 -0.000000 -0.000000
								CHANNELS 3 Zrotation Yrotation Xrotation
								JOINT LeftFingerBase
								{
									OFFSET 0.000000 0.000000 0.000000
									CHANNELS 3 Zrotation Yrotation Xrotation
									JOINT LeftHandIndex1
									{
										OFFSET 4.291560 -0.000000 -0.000000
										CHANNELS 3 Zrotation Yrotation Xrotation
										End Site
										{
											OFFSET 0.000000 0.000000 0.000000
										}
									}
								}
								JOINT LThumb
								{
									OFFSET 0.000000 0.000000 0.000000
									CHANNELS 3 Zrotation Yrotation Xrotation
									End Site
									{
										OFFSET 0.000000 0.000000 0.000000
									}
								}
							}
						}
					}
				}
				JOINT RightShoulder
				{
					OFFSET 0.000000 0.000000 0.000000
					CHANNELS 3 Zrotation Yrotation Xrotation
					JOINT RightArm
					{
						OFFSET -18.819600 8.244300 -2.427900
						CHANNELS 3 Zrotation Yrotation Xrotation
						JOINT RightForeArm
						{
							OFFSET -31.451400 -0.000000 -0.000000
							CHANNELS 3 Zrotation Yrotation Xrotation
							JOINT RightHand
							{
								OFFSET -20.665020 -0.000000 -0.000000
								CHANNELS 3 Zrotation Yrotation Xrotation
								JOINT RightFingerBase
								{
									OFFSET 0.000000 0.000000 0.000000
									CHANNELS 3 Zrotation Yrotation Xrotation
									JOINT RightHandIndex1
									{
										OFFSET -3.735180 -0.000000 -0.000000
										CHANNELS 3 Zrotation Yrotation Xrotation
										End Site
										{
											OFFSET 0.000000 0.000000 0.000000
										}
									}
								}
								JOINT RThumb
								{
									OFFSET 0.000000 0.000000 0.000000
									CHANNELS 3 Zrotation Yrotation Xrotation
									End Site
									{
										OFFSET 0.000000 0.000000 0.000000
									}
								}
							}
						}
					}
				}
			}
		}
	}
}
MOTION
Frames:	11
Frame Time:	0.0333333
69.605484 107.295198 -122.536380 173.045603 -13.613185 -178.327811 -2.796257 2.175046 3.582349 -23.579937 -7.867142 7.931195 -0.446574 4.989311 16.601341 0.745804 -16.342966 7.599005 0.036600 -1.235300 -3.396400 1.010892 -1.133306 0.325286 8.536777 4.578861 -25.544243 -1.000023 -8.128344 21.665016 4.034652 -21.411622 6.617285 -1.511800 -7.765100 22.002900 -4.603536 -1.322446 8.900343 0.793916 -2.315453 2.289672 1.363228 -1.381469 -2.134130 -7.615546 15.039676 -12.337388 3.852095 19.110946 34.163865 5.391400 4.644600 17.593100 -6.193489 -2.750274 -0.986897 -87.378774 -12.527000 34.099226 18.084184 -24.618472 -4.897174 -1.258085 -2.382357 4.835859 19.225993 22.497083 8.869600 -7.125000 0.000000 0.000000 -10.096100 56.084400 -2.765000 5.374675 0.768375 -1.427986 84.361024 -9.511987 9.387288 -16.880540 24.866691 -3.958097 0.413905 -0.086824 4.944020 -15.852262 7.399918 -2.163800 7.125000 0.000000 0.000000 7.679900 -22.258300 4.235800 
69.123072 107.368584 -120.049722 173.490441 -13.140761 -178.257481 -2.889176 2.065325 3.488489 -23.508600 -7.343018 6.333935 -0.465244 4.975346 16.511094 0.804985 -16.499611 6.388921 0.084200 -1.871800 -5.151500 1.039764 -1.048363 0.323486 9.281117 2.755530 -26.493371 -0.806732 -7.915263 21.142994 4.712945 -22.297014 0.570803 -0.354500 -3.825300 10.585700 -4.214219 -0.445287 8.396782 1.004820 -1.081028 2.633088 1.385566 -0.811745 -1.365496 -8.678481 14.533493 -13.519368 4.462252 18.896668 34.571198 5.958100 4.426500 17.947900 -6.220957 -2.699449 -0.994798 -87.852704 -12.560540 34.974638 17.725938 -24.135712 -4.705956 -1.363630 -2.322964 4.324821 20.534475 21.616527 9.213700 -7.125000 0.000000 0.000000 -8.177800 55.409300 -2.099800 5.422118 0.804946 -1.380902 83.639681 -7.717863 8.178527 -17.219545 25.351858 -4.110626 0.429235 -0.115822 4.518768 -16.385112 8.427855 -2.557000 7.125000 0.000000 0.000000 7.256200 -21.141600 4.183700 
68.714040 107.584530 -117.744714 173.883769 -12.286358 -178.795900 -2.897932 1.979547 3.445335 -23.595703 -6.214158 5.239527 -0.464709 4.952767 16.473235 0.810460 -16.164604 6.407113 0.003800 -0.400500 -1.100400 1.021910 -1.012000 0.359422 10.548153 -0.430552 -27.786283 -0.989846 -8.354085 22.546847 4.068833 -19.661618 0.140674 -0.137200 -2.387400 6.577600 -4.006277 0.168713 8.858504 0.831872 -0.286670 2.442185 0.883510 -0.349900 -2.076871 -7.473376 14.986261 -12.464450 4.230019 19.010865 34.676589 5.588700 4.618700 17.902300 -6.222533 -2.629706 -1.028799 -86.576785 -10.412574 34.617945 17.402842 -23.852484 -4.559851 -1.319081 -2.367455 4.023627 20.003074 22.123313 9.140700 -7.125000 0.000000 0.000000 -8.998700 55.849000 -2.409300 5.375112 0.730556 -1.409178 83.906269 -8.263807 8.845254 -18.317458 26.789119 -4.644621 0.441766 -0.099264 4.916101 -17.109584 8.081814 -2.560900 7.125000 0.000000 0.000000 6.730800 -21.485300 3.823700 
68.312232 107.864232 -115.572648 173.823166 -11.390490 -179.064823 -2.903161 1.899116 3.358472 -24.258574 -6.096439 4.475718 -0.507584 4.862662 16.209925 0.803997 -15.489301 6.416674 0.007400 -0.555000 -1.525100 0.943843 -0.986380 0.380546 11.208412 -3.099085 -29.515014 -1.700348 -9.771610 26.947604 3.568083 -17.533336 -1.154708 -0.236200 -3.128200 8.635800 -4.205927 0.717288 8.918894 0.567751 0.386815 2.351860 0.475443 0.020862 -2.325161 -7.048745 15.149647 -12.122186 4.651610 18.983936 34.758417 5.694400 4.739300 17.832600 -6.270495 -2.510776 -1.072874 -85.338021 -8.379590 32.816849 16.928406 -23.356235 -4.318758 -1.325480 -2.307628 4.909159 19.650528 21.821125 8.848800 -7.125000 0.000000 0.000000 -9.249000 55.422600 -2.381100 5.379777 0.693472 -1.385527 83.526539 -7.140047 9.896693 -17.902671 26.262460 -4.448818 0.429679 -0.127875 5.559264 -16.874796 8.466992 -2.649600 7.125000 0.000000 0.000000 6.900400 -21.071600 3.986500 
67.953726 108.257022 -113.522082 174.707816 -10.316782 -179.648186 -2.898713 1.861754 3.305544 -23.854382 -6.040200 3.536994 -0.511471 4.952379 16.424488 0.816910 -14.475082 6.583818 0.032800 -1.168400 -3.212400 0.867643 -1.009998 0.410356 12.419932 -4.410125 -30.238919 -2.793266 -11.478626 32.595002 3.180673 -16.097812 -1.332691 -0.119500 -2.228500 6.137600 -3.379535 1.281589 9.140522 0.486651 1.199154 2.252722 -0.208608 0.481021 -2.708151 -5.730261 15.466086 -11.237485 4.113544 19.026309 34.620210 5.171900 4.925900 17.747400 -6.291740 -2.419336 -1.102006 -84.084011 -5.809050 30.934438 16.363126 -22.761083 -4.039300 -1.378995 -2.267535 4.994766 20.125479 21.545844 8.982200 -7.125000 0.000000 0.000000 -8.568400 55.207800 -2.159100 5.386416 0.587715 -1.384792 83.299193 -6.455517 10.892574 -18.060220 26.482844 -4.546270 0.370599 -0.075387 5.789813 -15.080377 7.125995 -1.971800 7.125000 0.000000 0.000000 8.283400 -22.584400 4.513000 
67.730568 108.601086 -111.573774 175.355080 -9.536304 179.828209 -2.895252 1.824064 3.213505 -23.565689 -6.277269 2.599127 -0.466559 5.196299 17.060545 0.812633 -13.513395 6.985999 0.054200 -1.502100 -4.131500 0.790562 -1.039371 0.450150 12.879247 -4.735727 -29.704911 -4.093554 -13.090488 38.460433 2.691073 -14.182434 -1.417252 -0.145800 -2.461100 6.781800 -2.815385 2.073188 9.367301 0.612521 2.290909 2.474042 -0.414755 1.024582 -2.513005 -5.878346 15.356753 -11.510158 4.728219 18.880151 34.957886 5.513500 4.903100 17.910000 -6.338940 -2.292281 -1.125944 -83.733897 -4.268053 28.582464 15.584990 -21.770635 -3.640490 -1.456263 -2.243812 5.673515 20.370629 21.563542 9.120100 -7.125000 0.000000 0.000000 -8.264000 55.276700 -2.095500 5.417344 0.573397 -1.351583 82.526334 -5.083230 11.291279 -18.582331 27.170607 -4.800438 0.399694 -0.105080 5.625634 -16.139948 8.004734 -2.384500 7.125000 0.000000 0.000000 7.463400 -21.607500 4.225800 
67.489962 108.887412 -109.608624 175.248140 -9.556829 179.567414 -2.879062 1.733361 3.049524 -23.940823 -6.792888 1.320974 -0.339056 5.609621 18.222217 0.790536 -13.658344 8.076144 0.030200 -1.121800 -3.083900 0.717649 -1.077270 0.506294 12.255634 -5.783927 -29.174114 -5.493805 -14.496368 44.029463 2.236206 -12.454172 -0.311327 -0.015500 0.803500 -2.208300 -2.714301 2.538160 9.518034 0.446937 2.873856 2.638565 -0.850814 1.336303 -2.285141 -5.773470 15.564811 -12.114112 4.679974 19.418960 34.777127 5.618100 5.188300 17.917500 -6.401551 -2.212988 -1.129039 -82.862355 -2.828488 25.609074 14.659376 -20.585423 -3.188883 -1.569965 -2.257493 6.490893 20.820489 22.259558 9.623500 -7.125000 0.000000 0.000000 -8.011200 56.132400 -2.197500 5.427400 0.516895 -1.342053 81.982274 -3.833362 12.323587 -19.206958 27.981473 -5.132004 0.372700 -0.053524 4.722988 -15.188340 7.059518 -1.963600 7.125000 0.000000 0.000000 8.208100 -22.664300 4.455900 
67.496574 109.125612 -107.926188 175.963610 -9.792525 179.048387 -2.862168 1.677919 2.897224 -23.155743 -7.624821 -0.036388 -0.136123 6.239442 19.980876 0.805921 -13.806538 8.832185 0.030300 -1.123000 -3.087200 0.678955 -1.151745 0.614048 12.480988 -6.694225 -26.618252 -7.039160 -15.747635 49.920981 1.546438 -9.285537 -2.028835 -0.064700 -1.641000 4.514600 -2.283696 2.987783 9.468001 0.516969 3.504683 2.720560 -1.025461 1.675281 -2.138633 -5.243421 16.005096 -11.990390 4.993905 19.890816 35.157626 5.752400 5.468900 18.072200 -6.442611 -2.101402 -1.123286 -81.913907 -1.052919 22.953943 13.544722 -19.114866 -2.693116 -1.511509 -2.286850 7.545656 19.032703 22.785367 8.926200 -7.125000 0.000000 0.000000 -10.266000 56.325500 -2.872400 5.432930 0.441637 -1.350413 81.488115 -3.523863 13.573556 -20.383937 29.449705 -5.753054 0.401212 -0.063761 3.791849 -16.181650 7.817656 -2.326700 7.125000 0.000000 0.000000 7.440900 -21.828700 4.175100 
67.621092 109.295838 -106.158936 176.824057 -10.308335 178.963147 -2.863979 1.584539 2.718371 -22.098991 -8.239991 -2.056692 0.090469 6.879090 21.781700 0.835694 -14.366019 9.499506 0.065700 -1.653800 -4.549800 0.695916 -1.202275 0.703841 13.089765 -7.027052 -23.851731 -7.861559 -16.237070 52.768158 1.373428 -8.526322 -1.604255 -0.015000 0.790900 -2.173700 -1.693025 3.458354 9.292084 0.574413 4.191603 2.768114 -1.298635 2.046113 -1.920838 -5.177340 16.408143 -12.347630 5.115349 20.671651 34.985355 5.942100 5.874900 17.941000 -6.494404 -2.050700 -1.089892 -80.755085 -0.304289 20.184043 12.246270 -17.327602 -2.159191 -1.654608 -2.503043 10.053035 18.316294 26.515692 9.814600 -7.125000 0.000000 0.000000 -13.239900 60.161200 -4.948600 5.456085 0.401037 -1.358963 81.195060 -2.728728 13.803629 -21.219022 30.465382 -6.208307 0.419127 -0.070977 3.378198 -16.855033 8.275554 -2.572500 7.125000 0.000000 0.000000 6.930800 -21.313700 3.966100 
67.785300 109.497948 -104.523420 177.494349 -11.123834 178.887525 -2.864017 1.530597 2.592112 -21.242600 -8.688217 -3.377036 0.150818 7.097298 22.374744 0.854559 -14.899382 10.684937 0.073000 -1.743400 -4.797000 0.735882 -1.276777 0.803055 13.648287 -7.757720 -20.180034 -8.261179 -16.386067 54.134649 1.052366 -6.999262 -1.336058 -0.076600 1.785900 -4.914300 -1.249756 3.834514 8.995782 0.518490 4.732797 2.757472 -1.658297 2.353070 -1.766627 -4.281431 16.965741 -11.788491 4.872635 21.299342 34.882562 5.730100 6.295400 17.794500 -6.498218 -2.013518 -1.050753 -79.322595 0.675639 18.052807 11.420266 -16.237372 -1.858244 -1.742592 -2.402379 11.645652 18.364751 26.221256 9.750300 -7.125000 0.000000 0.000000 -12.936200 59.836400 -4.732300 5.435977 0.328856 -1.371889 81.161412 -2.658692 14.322828 -22.455123 31.914661 -6.916255 0.414867 -0.045867 3.078767 -16.837063 7.903760 -2.447700 7.125000 0.000000 0.000000 6.955100 -21.723900 3.915100 
68.028312 109.728930 -102.804894 178.251470 -11.801531 179.074356 -2.884178 1.470235 2.487924 -20.145672 -8.813526 -4.832758 0.105636 7.090737 22.288160 0.892495 -15.598812 11.715923 0.041800 -1.319300 -3.627700 0.805339 -1.330180 0.904440 14.732624 -7.997144 -16.130655 -8.064770 -16.115337 53.460940 0.681227 -5.126503 -1.175399 -0.040300 1.296300 -3.564500 -0.700060 4.412136 8.803054 0.476044 5.559141 2.646319 -2.083949 2.803805 -1.829479 -3.911076 17.354205 -11.443269 4.628721 21.914185 34.462643 5.606600 6.678700 17.454300 -6.486618 -1.995058 -1.029753 -78.098731 1.320239 16.324224 10.863576 -15.510993 -1.669804 -1.855782 -2.220195 12.859595 19.256576 25.018153 9.843100 -7.125000 0.000000 0.000000 -11.079100 58.731300 -3.748400 5.414727 0.295639 -1.381254 80.994187 -2.203642 14.222537 -23.394527 32.984812 -7.486193 0.366343 0.009855 0.857641 -15.072390 7.087950 -1.944100 7.125000 0.000000 0.000000 8.300000 -22.679900 4.503900 
